# xmcd
#
# Track frame offsets:
#	150
#	13362
#	28230
#	40217
#	58650
#	77007
#	93045
#	108517
#	121942
#	133692
#	147492
#	167815
#	180490
#	194085
#
# Disc length: 2809 seconds
#
# Revision: 0
# Processed by: cddbd v1.5.2PL0 Copyright (c) Steve Scherf et al.
# Submitted via: dBpowerAMP V4.0
#
DISCID=c60af70e
DTITLE=Various Artist - Romance in Love Songs
DYEAR=1900
DGENRE=
TTITLE0=Ivanildo - Perhaps Love
TTITLE1=Pepino de Capri - Ancora Con Te
TTITLE2=The Platters - Smoke Gets In Your Eyes
TTITLE3=Shirley Bassey - All By Myself
TTITLE4=The Velvet Sound Orchestra - Strani Amori
TTITLE5=Rihteous Brothers - Unchained Melody
TTITLE6=Reggae People - I Can't Help Falling In Love With You
TTITLE7=Loro - Me And You And A Dog Named Boo
TTITLE8=The Platters - Only You
TTITLE9=The Velvet Sound Orchestra - Yesterday When I Was Young
TTITLE10=Shirley Bassey - And I Love You So
TTITLE11=Righteous Brothers - Ebb Tide
TTITLE12=Ivanildo - Crazy
TTITLE13=Luiz Avellar - Como Uma Onda
EXTD=
EXTT0=
EXTT1=
EXTT2=
EXTT3=
EXTT4=
EXTT5=
EXTT6=
EXTT7=
EXTT8=
EXTT9=
EXTT10=
EXTT11=
EXTT12=
EXTT13=
PLAYORDER=
